<svg xmlns="http://www.w3.org/2000/svg" viewBox="0 0 1200 1200" role="img" aria-labelledby="title desc">
  <title id="title">Smart Learn Code</title>
  <desc id="desc">Smart Learn Code logo with graduation cap, open book, and code symbol.</desc>
  <defs>
    <linearGradient id="slcGradient" x1="120" x2="1080" y1="940" y2="940" gradientUnits="userSpaceOnUse">
      <stop offset="0" stop-color="#0f66ff"/>
      <stop offset="0.52" stop-color="#1685ff"/>
      <stop offset="1" stop-color="#7c35e8"/>
    </linearGradient>
    <linearGradient id="slcIconGradient" x1="260" x2="940" y1="620" y2="620" gradientUnits="userSpaceOnUse">
      <stop offset="0" stop-color="#0f75ff"/>
      <stop offset="0.55" stop-color="#2563eb"/>
      <stop offset="1" stop-color="#7c3aed"/>
    </linearGradient>
    <linearGradient id="slcDarkBlue" x1="350" x2="820" y1="170" y2="430" gradientUnits="userSpaceOnUse">
      <stop offset="0" stop-color="#0f3d82"/>
      <stop offset="1" stop-color="#082b63"/>
    </linearGradient>
    <filter id="softShadow" x="-20%" y="-20%" width="140%" height="140%">
      <feDropShadow dx="0" dy="18" stdDeviation="20" flood-color="#0f1f4a" flood-opacity="0.14"/>
    </filter>
  </defs>

  <rect width="1200" height="1200" rx="0" fill="#ffffff"/>

  <g filter="url(#softShadow)">
    <path d="M402 368h396c42 0 76 34 76 76v184h-46V446c0-17-14-31-31-31H403c-17 0-31 14-31 31v182h-46V444c0-42 34-76 76-76z" fill="url(#slcIconGradient)"/>
    <path d="M248 572c142 19 255 58 337 119 9 7 17 15 23 24-101-36-223-61-382-74l22-69z" fill="#0f66ff"/>
    <path d="M952 572c-142 19-255 58-337 119-9 7-17 15-23 24 101-36 223-61 382-74l-22-69z" fill="#6f36dc"/>
    <path d="M210 646c184 15 317 45 390 100 74-55 207-85 390-100l27 62c-200 15-330 49-391 103-15 14-38 14-53 0-61-54-191-88-390-103l27-62z" fill="url(#slcGradient)"/>
    <circle cx="600" cy="788" r="26" fill="#1720b7"/>

    <path d="M412 264l188-93 188 93-188 91-188-91z" fill="url(#slcDarkBlue)"/>
    <path d="M492 341c72-34 144-34 216 0v86c-72-29-144-29-216 0v-86z" fill="url(#slcDarkBlue)"/>
    <path d="M782 274v132" stroke="#082b63" stroke-width="14" stroke-linecap="round"/>
    <circle cx="782" cy="430" r="18" fill="#082b63"/>
    <path d="M768 448h28l18 98h-64l18-98z" fill="#082b63"/>

    <path d="M536 492l-51 54 51 54" fill="none" stroke="#0f75ff" stroke-width="30" stroke-linecap="round" stroke-linejoin="round"/>
    <path d="M664 492l51 54-51 54" fill="none" stroke="#7638e6" stroke-width="30" stroke-linecap="round" stroke-linejoin="round"/>
    <path d="M625 471l-50 148" fill="none" stroke="#4c45e8" stroke-width="30" stroke-linecap="round"/>
  </g>

  <text x="600" y="905" text-anchor="middle" font-family="Inter, Arial, sans-serif" font-size="88" font-weight="800" letter-spacing="-2">
    <tspan fill="#0b3b78">Smart </tspan><tspan fill="#1685ff">Learn </tspan><tspan fill="#7c3aed">Code</tspan>
  </text>
  <g fill="none" stroke="url(#slcGradient)" stroke-width="4">
    <path d="M132 976h82"/>
    <path d="M986 976h82"/>
  </g>
  <text x="600" y="988" text-anchor="middle" font-family="Inter, Arial, sans-serif" font-size="24" font-weight="700" letter-spacing="9" fill="#111a36">
    LEARN TODAY, CODE TOMORROW, BUILD THE FUTURE
  </text>
</svg>
